<?xml version="1.0" encoding="utf-8"?>
<!-- Generator: Adobe Illustrator 24.0.1, SVG Export Plug-In . SVG Version: 6.00 Build 0)  -->
<svg version="1.1" id="Layer_1" xmlns="http://www.w3.org/2000/svg" xmlns:xlink="http://www.w3.org/1999/xlink" x="0px" y="0px"
	 viewBox="0 0 96 114.5" style="enable-background:new 0 0 96 114.5;" xml:space="preserve">
<style type="text/css">
	.st0{fill:#FF0000;}
	.st1{fill:#FFFFFF;}
</style>
<g>
	<rect class="st0" width="96" height="96.05"/>
	<path class="st1" d="M16,74.04h10c0,0,5.31-9.48,10.55-18.82c-2.59-1.65-5.13-2.99-7.76-3.68L16,74.04z"/>
	<path class="st1" d="M88.5,48.53h-3c0,0-0.82,9.83-11.35,11.7c-1.11,0.2-2.32,0.31-3.65,0.31c-2.44,0-4.6-0.32-6.56-0.87
		c-9.08-2.54-13.77-10.1-21.69-14.62C45.05,40.06,49,33.02,49,33.02l12.87,22.96c2.48,0.97,5.29,1.55,8.63,1.55
		c0.72,0,1.4-0.04,2.06-0.1L53,23.01h-8L34.18,42.05c-1.73-0.33-3.61-0.52-5.68-0.52c-18,0-20,16.01-20,20.01h3
		c0,0,2-12.01,15-12.01c1.1,0,2.17,0.14,3.22,0.37c2.68,0.6,5.24,1.89,7.85,3.51c8.09,5.04,16.66,13.28,30.75,14.06L72,74.04h10
		l-4.39-7.72C88.5,62.12,88.5,48.53,88.5,48.53z"/>
	<g>
		<path class="st0" d="M9.84,111.97l-3.25-6.64l-3.26,6.64L2.2,114.5H0.15l4.97-11.08c0.26-0.58,0.84-0.96,1.48-0.96h0
			c0.64,0,1.22,0.37,1.48,0.96l4.97,11.08h-2.04L9.84,111.97z"/>
		<path class="st0" d="M9.84,111.97l-3.25-6.64l-3.26,6.64L2.2,114.5H0.15l4.97-11.08c0.26-0.58,0.84-0.96,1.48-0.96h0
			c0.64,0,1.22,0.37,1.48,0.96l4.97,11.08h-2.04L9.84,111.97z"/>
		<path class="st0" d="M44.8,111.97l-3.25-6.64l-3.26,6.64l-1.13,2.53h-2.04l4.97-11.08c0.26-0.58,0.84-0.96,1.48-0.96l0,0
			c0.64,0,1.22,0.37,1.48,0.96L48,114.5h-2.04L44.8,111.97z"/>
		<path class="st0" d="M81.46,111.97l-3.25-6.64l-3.26,6.64l-1.13,2.53h-2.04l4.97-11.08c0.26-0.58,0.84-0.96,1.48-0.96h0
			c0.64,0,1.22,0.37,1.48,0.96l4.97,11.08h-2.04L81.46,111.97z"/>
		<path class="st0" d="M21.68,104.86c-0.57-0.83-1.72-1.32-2.97-1.34c-1.61,0-2.78,0.67-2.78,1.82c0,1.17,1.34,1.5,2.92,1.72
			c2.47,0.34,4.83,1.03,4.83,3.73c-0.02,2.7-2.47,3.71-4.98,3.71c-2.3,0-4.07-0.7-5.17-2.73l1.44-0.96
			c0.86,1.46,2.35,1.98,3.74,1.98c1.44,0,3.04-0.48,3.04-1.99c0-1.31-1.39-1.75-3.07-1.98c-2.39-0.33-4.66-0.93-4.66-3.51
			c-0.02-2.49,2.47-3.45,4.64-3.45c1.74,0,3.47,0.41,4.48,2.03L21.68,104.86z"/>
		<path class="st0" d="M27.76,102.47v10.24h6.34v1.79h-8.26v-12.03H27.76z"/>
		<path class="st0" d="M57.4,111.03v-8.56h1.92v12.03h-1.46l-6.82-8.49v8.49h-1.94v-12.03h1.48L57.4,111.03z"/>
		<path class="st0" d="M64.27,102.47v10.24h6.34v1.79h-8.26v-12.03H64.27z"/>
		<path class="st0" d="M96,114.5h-2.25l-3.66-4.16h-2.54v4.16h-1.92v-12.05c1.87,0,3.73,0.02,5.6,0.02c2.78,0,4.24,1.91,4.24,3.94
			c0,1.72-0.89,3.4-3.26,3.75l3.59,4L96,114.5z M87.55,104.22v4.37h3.66c1.6,0,2.3-1.01,2.3-2.15c0-1.08-0.7-2.22-2.28-2.22H87.55z"
			/>
	</g>
</g>
</svg>
